<svg width="104" height="15" viewBox="0 0 104 15" fill="none" xmlns="http://www.w3.org/2000/svg">
<path d="M8.022 6.19799C8.33 6.63199 8.498 7.20599 8.498 7.90599C8.498 8.46599 8.358 8.98399 8.078 9.44599C7.798 9.92199 7.378 10.3 6.832 10.58C6.3 10.86 5.642 11 4.872 11C4.13 11 3.444 10.874 2.856 10.622C2.254 10.356 1.764 9.97799 1.4 9.48799C1.036 8.99799 0.825997 8.40999 0.783997 7.76599L0.755997 7.54199H2.66C3.01 7.54199 3.332 7.75199 3.444 8.07399C3.514 8.28399 3.64 8.47999 3.794 8.63399C4.046 8.87199 4.368 8.98399 4.788 8.98399C5.152 8.98399 5.432 8.88599 5.614 8.70399C5.796 8.52199 5.894 8.28399 5.894 7.97599C5.894 7.70999 5.824 7.49999 5.67 7.33199C5.516 7.14999 5.306 6.99599 5.054 6.88399C4.774 6.75799 4.396 6.61799 3.906 6.44999C3.262 6.23999 2.73 6.02999 2.324 5.81999C1.89 5.59599 1.512 5.27399 1.218 4.85399C0.909997 4.41999 0.755997 3.85999 0.755997 3.17399C0.755997 2.23599 1.092 1.49399 1.778 0.947985C2.436 0.415985 3.332 0.135986 4.41 0.135986C5.53 0.135986 6.44 0.415985 7.126 0.961986C7.798 1.52199 8.204 2.26399 8.288 3.18799L8.316 3.41199H6.664C6.188 3.41199 5.754 3.15999 5.502 2.73999C5.446 2.62799 5.362 2.54399 5.278 2.45999C5.068 2.26399 4.774 2.16599 4.396 2.16599C4.074 2.16599 3.822 2.23599 3.626 2.40399C3.444 2.55799 3.346 2.79599 3.346 3.10399C3.346 3.35599 3.416 3.55199 3.556 3.70599C3.724 3.88799 3.92 4.02799 4.172 4.13999C4.438 4.26599 4.816 4.40599 5.264 4.55999C5.936 4.79799 6.482 5.00799 6.902 5.21799C7.336 5.44199 7.714 5.76399 8.022 6.19799ZM14.1565 6.63199V9.79599H18.2025C18.1325 10.468 17.5585 11 16.8585 11H13.8905C13.1485 11 12.5465 10.398 12.5465 9.65599V2.57199C12.5465 1.82999 13.1485 1.21399 13.8905 1.21399H18.2025C18.1185 1.89999 17.5445 2.41799 16.8585 2.41799H14.1565V5.48399H17.7545C17.6565 6.12799 17.0965 6.63199 16.4245 6.63199H14.1565ZM26.7649 6.93999L26.4709 6.99599L28.9769 11H28.2489C27.6049 11 27.0029 10.664 26.6809 10.118L24.8329 7.03799H23.6009V11C22.6909 10.888 21.9909 10.118 21.9909 9.17999V3.04799C21.9909 2.03999 22.8029 1.21399 23.8109 1.21399H25.6589C26.7929 1.21399 27.6469 1.49399 28.2349 2.02599C28.8089 2.57199 29.1029 3.27199 29.1029 4.16799C29.1029 4.88199 28.8929 5.48399 28.5009 5.95999C28.1089 6.44999 27.5209 6.77199 26.7649 6.93999ZM24.4829 6.04399H25.4909C27.1009 6.04399 27.4509 5.09199 27.4509 4.29399C27.4509 3.74799 27.2829 3.31399 26.9609 2.99199C26.6389 2.68399 26.1349 2.51599 25.4909 2.51599H23.6009V5.17599C23.6009 5.65199 23.9929 6.04399 24.4829 6.04399ZM38.747 3.15999C39.111 2.10999 40.049 1.36799 41.141 1.25599L37.669 11.028H36.815C35.947 11.028 35.163 10.468 34.869 9.64199L32.517 3.01999C32.377 2.59999 32.433 2.15199 32.685 1.80199C32.909 1.47999 33.245 1.28399 33.623 1.24199L36.507 9.75399L38.747 3.15999ZM44.5862 3.04799C44.5862 2.10999 45.2862 1.33999 46.1962 1.22799V11C45.2862 10.888 44.5862 10.118 44.5862 9.17999V3.04799ZM58.747 9.96399L61.323 12.764H59.433C58.691 12.764 58.005 12.442 57.529 11.882L56.703 10.888C56.339 10.958 55.933 11 55.513 11C54.519 11 53.623 10.776 52.811 10.314C52.013 9.85199 51.369 9.19399 50.893 8.36799C50.431 7.54199 50.207 6.60399 50.207 5.56799C50.207 4.53199 50.431 3.59399 50.893 2.76799C51.369 1.94199 52.013 1.29799 52.811 0.835986C53.623 0.373985 54.519 0.135986 55.513 0.135986C56.493 0.135986 57.403 0.373985 58.201 0.835986C59.013 1.29799 59.657 1.94199 60.119 2.76799C60.581 3.59399 60.819 4.53199 60.819 5.56799C60.819 6.53399 60.623 7.41599 60.217 8.19999C59.853 8.91399 59.363 9.50199 58.747 9.96399ZM57.963 7.24799C58.201 6.77199 58.327 6.19799 58.327 5.56799C58.327 4.92399 58.201 4.36399 57.963 3.88799C57.725 3.42599 57.389 3.06199 56.983 2.80999C56.563 2.55799 56.073 2.43199 55.513 2.43199C54.953 2.43199 54.463 2.55799 54.043 2.80999C53.623 3.06199 53.301 3.42599 53.063 3.88799C52.825 4.36399 52.699 4.92399 52.699 5.56799C52.699 6.19799 52.825 6.77199 53.063 7.24799C53.301 7.70999 53.623 8.07399 54.043 8.32599C54.463 8.56399 54.953 8.68999 55.513 8.68999C56.073 8.68999 56.563 8.56399 56.983 8.32599C57.389 8.07399 57.725 7.70999 57.963 7.24799ZM70.7948 2.94999C70.7948 2.01199 71.4948 1.24199 72.4048 1.14399V6.89799C72.4048 7.80799 72.2368 8.57799 71.9008 9.19399C71.5648 9.80999 71.1168 10.272 70.5288 10.566C69.9408 10.86 69.2548 11.014 68.5128 11.014C67.3508 11.014 66.4128 10.664 65.7268 9.97799C65.0268 9.29199 64.6908 8.25599 64.6908 6.89799V2.94999C64.6908 2.01199 65.3908 1.24199 66.2868 1.14399V6.89799C66.2868 7.75199 66.4828 8.40999 66.8748 8.84399C67.2668 9.29199 67.8268 9.51599 68.5548 9.51599C69.2688 9.51599 69.8288 9.29199 70.2208 8.84399C70.5988 8.40999 70.7948 7.75199 70.7948 6.89799V2.94999ZM76.6948 3.04799C76.6948 2.10999 77.3948 1.33999 78.3048 1.22799V11C77.3948 10.888 76.6948 10.118 76.6948 9.17999V3.04799ZM91.1216 8.19999C91.2616 8.46599 91.2616 8.78799 91.0936 9.03999C90.8416 9.43199 90.5196 9.78199 90.1416 10.076C89.3436 10.706 88.3216 11.014 87.1036 11.014C86.1656 11.014 85.3396 10.804 84.6256 10.384C83.9116 9.97799 83.3656 9.38999 82.9736 8.63399C82.5816 7.87799 82.3856 7.00999 82.3856 6.04399C82.3856 5.06399 82.5816 4.19599 82.9736 3.43999C83.3656 2.68399 83.9116 2.09599 84.6116 1.67599C85.3256 1.25599 86.1516 1.04599 87.1036 1.04599C88.3216 1.04599 89.3436 1.36799 90.1416 1.98399C90.5196 2.27799 90.8416 2.62799 91.0936 3.03399C91.2616 3.28599 91.2616 3.59399 91.1216 3.85999C90.9816 4.12599 90.7156 4.27999 90.4076 4.27999C90.1276 4.27999 89.8616 4.13999 89.7076 3.88799C89.4976 3.55199 89.2176 3.25799 88.8676 3.01999C88.3636 2.68399 87.7616 2.50199 87.0756 2.50199C86.4876 2.50199 85.9696 2.65599 85.4936 2.94999C85.0316 3.22999 84.6676 3.64999 84.4156 4.18199C84.1636 4.71399 84.0236 5.34399 84.0236 6.04399C84.0236 6.72999 84.1636 7.34599 84.4156 7.87799C84.6676 8.40999 85.0316 8.82999 85.4936 9.12399C85.9696 9.41799 86.4876 9.55799 87.0756 9.55799C87.7616 9.55799 88.3636 9.38999 88.8676 9.03999C89.2176 8.81599 89.4976 8.52199 89.7076 8.17199C89.8616 7.93399 90.1276 7.77999 90.4076 7.77999C90.7156 7.77999 90.9816 7.93399 91.1216 8.19999ZM98.6468 6.02999L102.791 11.014H101.741C101.181 11.014 100.663 10.762 100.313 10.328L96.8828 6.07199L100.327 1.88599C100.677 1.46599 101.195 1.22799 101.741 1.22799H102.791L98.6468 6.02999ZM95.1748 3.04799C95.1748 2.10999 95.8748 1.33999 96.7848 1.24199V11C95.8748 10.888 95.1748 10.118 95.1748 9.17999V3.04799Z" fill="#0088D1"/>
</svg>
